<?xml version="1.0"?>
<svg version="1.1" xmlns="http://www.w3.org/2000/svg" width="151px" height="36px" style=""><path fill="#1bcf57" d="M16.016,14.444l-0.196,1.624c-0.056,0.476-0.364,0.588-0.868,0.588l-5.068,0l0,15.82c0,0.532-0.112,0.644-0.588,0.644l-2.464,0c-0.504,0-0.588-0.112-0.588-0.616l0-15.848l-5.236,0c-0.476,0-0.644-0.196-0.644-0.672l0-1.652c0-0.42,0.196-0.588,0.616-0.588l14.168,0c0.728,0,0.924,0.224,0.868,0.7z M31.402,26.288c0,0.672-0.224,0.812-0.924,0.812l-8.204,0c0.224,2.156,1.792,3.64,4.004,3.64c1.176,0,2.408-0.28,3.444-0.672c0.112-0.028,0.196-0.084,0.308-0.084c0.196,0,0.336,0.112,0.392,0.336l0.392,1.428c0.028,0.14,0.056,0.252,0.056,0.336c0,0.196-0.112,0.336-0.448,0.476c-1.372,0.616-3.248,0.896-4.704,0.896c-4.396,0-7-2.8-7-7.168c0-4.2,2.772-7.112,6.944-7.112c1.708,0,3.108,0.644,4.088,1.68c1.288,1.344,1.652,3.108,1.652,5.012l0,0.42z M28.07,24.888l0-0.308c-0.056-1.456-0.896-2.8-2.604-2.8c-1.82,0-2.912,1.456-3.136,3.108l5.74,0z M43.288,19.652c0,0.084,0,0.168-0.028,0.252l-0.308,1.988c-0.028,0.252-0.168,0.364-0.392,0.364l-0.112,0c-0.224-0.056-0.504-0.084-0.756-0.084c-0.952,0-1.988,0.504-2.688,1.344l0,8.904c0,0.448-0.196,0.7-0.672,0.7l-2.044,0c-0.448,0-0.672-0.224-0.672-0.7l0-8.736l0-3.444c0-0.56,0.28-0.7,0.7-0.7l1.792,0c0.448,0,0.7,0.14,0.7,0.532l0.028,0.896c0.868-1.092,1.82-1.792,3.388-1.792c0.224,0,0.532,0.056,0.784,0.112c0.196,0.056,0.28,0.14,0.28,0.364z M58.814,26.288c0,0.672-0.224,0.812-0.924,0.812l-8.204,0c0.224,2.156,1.792,3.64,4.004,3.64c1.176,0,2.408-0.28,3.444-0.672c0.112-0.028,0.196-0.084,0.308-0.084c0.196,0,0.336,0.112,0.392,0.336l0.392,1.428c0.028,0.14,0.056,0.252,0.056,0.336c0,0.196-0.112,0.336-0.448,0.476c-1.372,0.616-3.248,0.896-4.704,0.896c-4.396,0-7-2.8-7-7.168c0-4.2,2.772-7.112,6.944-7.112c1.708,0,3.108,0.644,4.088,1.68c1.288,1.344,1.652,3.108,1.652,5.012l0,0.42z M55.482,24.888l0-0.308c-0.056-1.456-0.896-2.8-2.604-2.8c-1.82,0-2.912,1.456-3.136,3.108l5.74,0z M66.416,32.42c0,0.476-0.224,0.7-0.616,0.7l-2.128,0c-0.392,0-0.644-0.196-0.644-0.672l0-18.368c0-0.476,0.196-0.616,0.56-0.672l2.016-0.28c0.056,0,0.14-0.028,0.196-0.028c0.336,0,0.616,0.168,0.616,0.616l0,18.704z M76.034,16.012c0,1.12-0.952,1.764-1.876,1.764s-1.876-0.616-1.876-1.736c0-1.148,0.896-1.82,1.876-1.82c0.952,0,1.876,0.672,1.876,1.792z M75.81,32.476c0,2.548-0.532,4.396-1.848,5.516c-0.952,0.812-2.184,1.232-4.088,1.232c-0.532,0-1.204-0.084-1.876-0.196c-0.336-0.056-0.476-0.224-0.476-0.448c0-0.084,0-0.168,0.028-0.252l0.28-1.568c0.056-0.28,0.168-0.364,0.392-0.364l0.056,0l0.756,0.084c0.644,0.056,1.26-0.084,1.708-0.308s1.008-0.532,1.288-1.064c0.252-0.504,0.392-1.232,0.392-2.156l0-1.792l0-11.004c0-0.42,0.28-0.616,0.672-0.616l2.072,0c0.42,0,0.644,0.168,0.644,0.616l0,12.32z"/><path fill="#2ab06f" d="M96.912,31.39c0,0.468-0.182,0.65-0.624,0.65l-2.054,0c-0.468,0-0.676-0.182-0.676-0.65l0-7.254l-7.384,0l0,7.254c0,0.468-0.208,0.65-0.65,0.65l-2.028,0c-0.468,0-0.702-0.182-0.702-0.65l0-16.718c0-0.442,0.286-0.624,0.702-0.624l2.028,0c0.416,0,0.65,0.156,0.65,0.624l0,6.786l7.384,0l0-6.786c0-0.442,0.26-0.624,0.676-0.624l2.054,0c0.416,0,0.624,0.156,0.624,0.624l0,16.718z M113.851,25.722c0,3.744-2.288,6.63-6.344,6.63c-4.238,0-6.188-2.86-6.188-6.656c0-3.744,2.288-6.604,6.344-6.604c4.238,0,6.188,2.808,6.188,6.63z M110.601,25.722c0-2.132-0.676-4.16-2.964-4.16c-2.314,0-3.068,2.002-3.068,4.082c0,2.132,0.65,4.238,2.964,4.238c2.288,0,3.068-2.028,3.068-4.16z M125.772,31.26c0,0.26-0.13,0.39-0.39,0.494c-0.806,0.338-1.872,0.598-2.912,0.598c-1.326,0-2.47-0.338-3.12-1.092c-0.806-0.91-0.832-1.976-0.832-3.874l0-5.798l-1.222,0c-0.494,0-0.572-0.104-0.572-0.65l0-0.988c0-0.312,0.156-0.52,0.468-0.52l1.326,0l0-2.834c0-0.442,0.234-0.572,0.65-0.624l1.872-0.234l0.13,0c0.338,0,0.494,0.182,0.494,0.572l0,3.12l2.938,0c0.312,0,0.494,0.104,0.494,0.442l0,1.222c0,0.312-0.208,0.494-0.52,0.494l-2.912,0l0,5.954c0,0.78,0.052,1.352,0.338,1.768c0.234,0.338,0.598,0.546,1.222,0.546c0.65,0,1.196-0.156,1.664-0.312c0.104-0.026,0.182-0.052,0.26-0.052c0.182,0,0.286,0.104,0.338,0.312l0.26,1.3c0.026,0.078,0.026,0.104,0.026,0.156z M140.371,25.696c0,0.624-0.208,0.754-0.858,0.754l-7.618,0c0.208,2.002,1.664,3.38,3.718,3.38c1.092,0,2.236-0.26,3.198-0.624c0.104-0.026,0.182-0.078,0.286-0.078c0.182,0,0.312,0.104,0.364,0.312l0.364,1.326c0.026,0.13,0.052,0.234,0.052,0.312c0,0.182-0.104,0.312-0.416,0.442c-1.274,0.572-3.016,0.832-4.368,0.832c-4.082,0-6.5-2.6-6.5-6.656c0-3.9,2.574-6.604,6.448-6.604c1.586,0,2.886,0.598,3.796,1.56c1.196,1.248,1.534,2.886,1.534,4.654l0,0.39z M137.277,24.396l0-0.286c-0.052-1.352-0.832-2.6-2.418-2.6c-1.69,0-2.704,1.352-2.912,2.886l5.33,0z M147.43,31.39c0,0.442-0.208,0.65-0.572,0.65l-1.976,0c-0.364,0-0.598-0.182-0.598-0.624l0-17.056c0-0.442,0.182-0.572,0.52-0.624l1.872-0.26c0.052,0,0.13-0.026,0.182-0.026c0.312,0,0.572,0.156,0.572,0.572l0,17.368z"/></svg>
